<?xml version="1.0" encoding="UTF-8"?>
<svg xmlns="http://www.w3.org/2000/svg" xmlns:xlink="http://www.w3.org/1999/xlink" width="375pt" height="374.999991pt" viewBox="0 0 375 374.999991" version="1.2">
<defs>
<clipPath id="clip1">
  <path d="M 81.816406 81.816406 L 293.316406 81.816406 L 293.316406 293.316406 L 81.816406 293.316406 Z M 81.816406 81.816406 "/>
</clipPath>
</defs>
<g id="surface1">
<path style=" stroke:none;fill-rule:nonzero;fill:rgb(100%,100%,100%);fill-opacity:1;" d="M 345.226562 278.339844 L 345.226562 96.363281 L 187.492188 5.375 L 29.753906 96.363281 L 29.753906 278.339844 L 187.492188 369.328125 Z M 345.226562 278.339844 "/>
<path style=" stroke:none;fill-rule:nonzero;fill:rgb(0%,45.878601%,88.62915%);fill-opacity:1;" d="M 221.6875 207.152344 C 202.363281 207.152344 192.617188 195.921875 192.617188 173.816406 C 192.617188 153.1875 202.710938 124.640625 221.6875 124.640625 C 230.300781 124.640625 238.136719 130.644531 243.53125 141.613281 C 248.058594 150.664062 250.757812 162.675781 250.757812 173.816406 C 250.757812 195.921875 241.007812 207.152344 221.6875 207.152344 Z M 221.6875 130.730469 C 208.542969 130.730469 198.707031 153.449219 198.707031 173.816406 C 198.707031 192.703125 205.757812 201.058594 221.6875 201.058594 C 237.613281 201.058594 244.664062 192.617188 244.664062 173.816406 C 244.664062 153.363281 235.265625 130.730469 221.6875 130.730469 Z M 221.6875 130.730469 "/>
<path style=" stroke:none;fill-rule:nonzero;fill:rgb(0%,45.878601%,88.62915%);fill-opacity:1;" d="M 179.558594 175.554688 L 128.644531 175.554688 C 126.988281 175.554688 125.597656 174.164062 125.597656 172.511719 C 125.597656 170.855469 126.988281 169.464844 128.644531 169.464844 L 179.558594 169.464844 C 181.214844 169.464844 182.605469 170.855469 182.605469 172.511719 C 182.605469 174.164062 181.214844 175.554688 179.558594 175.554688 Z M 179.558594 175.554688 "/>
<path style=" stroke:none;fill-rule:nonzero;fill:rgb(0%,45.878601%,88.62915%);fill-opacity:1;" d="M 160.933594 206.714844 L 146.3125 206.714844 C 134.214844 206.714844 124.378906 196.097656 124.378906 182.953125 L 124.378906 127.511719 C 124.378906 125.859375 125.769531 124.464844 127.425781 124.464844 C 129.078125 124.464844 130.472656 125.859375 130.472656 127.511719 L 130.472656 182.953125 C 130.472656 192.703125 137.609375 200.621094 146.3125 200.621094 L 160.933594 200.621094 C 169.726562 200.621094 176.773438 192.703125 176.773438 182.953125 L 176.773438 127.511719 C 176.773438 125.859375 178.167969 124.464844 179.820312 124.464844 C 181.476562 124.464844 182.867188 125.859375 182.867188 127.511719 L 182.867188 182.953125 C 182.953125 196.097656 173.121094 206.714844 160.933594 206.714844 Z M 160.933594 206.714844 "/>
<path style=" stroke:none;fill-rule:nonzero;fill:rgb(0%,45.878601%,88.62915%);fill-opacity:1;" d="M 157.886719 232.304688 C 156.234375 232.304688 154.839844 230.910156 154.839844 229.257812 L 154.839844 205.324219 C 154.839844 203.667969 156.234375 202.277344 157.886719 202.277344 C 159.542969 202.277344 160.933594 203.667969 160.933594 205.324219 L 160.933594 229.257812 C 160.933594 230.910156 159.542969 232.304688 157.886719 232.304688 Z M 157.886719 232.304688 "/>
<path style=" stroke:none;fill-rule:nonzero;fill:rgb(0%,45.878601%,88.62915%);fill-opacity:1;" d="M 149.097656 232.304688 C 147.445312 232.304688 146.050781 230.910156 146.050781 229.257812 L 146.050781 205.324219 C 146.050781 203.667969 147.445312 202.277344 149.097656 202.277344 C 150.75 202.277344 152.144531 203.667969 152.144531 205.324219 L 152.144531 229.257812 C 152.144531 230.910156 150.835938 232.304688 149.097656 232.304688 Z M 149.097656 232.304688 "/>
<path style=" stroke:none;fill-rule:nonzero;fill:rgb(0%,45.878601%,88.62915%);fill-opacity:1;" d="M 162.761719 173.03125 C 161.109375 173.03125 159.714844 171.640625 159.714844 169.984375 L 159.714844 127.773438 C 159.714844 126.121094 161.109375 124.726562 162.761719 124.726562 C 164.414062 124.726562 165.808594 126.121094 165.808594 127.773438 L 165.808594 169.984375 C 165.808594 171.640625 164.503906 173.03125 162.761719 173.03125 Z M 162.761719 173.03125 "/>
<path style=" stroke:none;fill-rule:nonzero;fill:rgb(0%,45.878601%,88.62915%);fill-opacity:1;" d="M 144.484375 173.03125 C 142.832031 173.03125 141.4375 171.640625 141.4375 169.984375 L 141.4375 127.773438 C 141.4375 126.121094 142.832031 124.726562 144.484375 124.726562 C 146.136719 124.726562 147.53125 126.121094 147.53125 127.773438 L 147.53125 169.984375 C 147.53125 171.640625 146.136719 173.03125 144.484375 173.03125 Z M 144.484375 173.03125 "/>
<path style=" stroke:none;fill-rule:nonzero;fill:rgb(0%,45.878601%,88.62915%);fill-opacity:1;" d="M 162.675781 289.226562 C 161.019531 289.226562 159.714844 287.921875 159.628906 286.265625 L 158.234375 234.480469 L 148.75 234.480469 L 147.53125 280.175781 C 147.445312 281.828125 146.050781 283.222656 144.398438 283.132812 C 142.742188 283.046875 141.351562 281.65625 141.4375 280 L 142.742188 231.347656 C 142.832031 229.695312 144.136719 228.386719 145.789062 228.386719 L 161.195312 228.386719 C 162.847656 228.386719 164.15625 229.695312 164.242188 231.347656 L 165.722656 286.09375 C 165.808594 287.835938 164.503906 289.226562 162.675781 289.226562 C 162.761719 289.226562 162.761719 289.226562 162.675781 289.226562 Z M 162.675781 289.226562 "/>
<g clip-path="url(#clip1)" clip-rule="nonzero">
<path style=" stroke:none;fill-rule:nonzero;fill:rgb(0%,45.878601%,88.62915%);fill-opacity:1;" d="M 187.566406 293.316406 C 129.253906 293.316406 81.816406 245.882812 81.816406 187.566406 C 81.816406 129.253906 129.253906 81.816406 187.566406 81.816406 C 245.882812 81.816406 293.316406 129.253906 293.316406 187.566406 C 293.316406 245.882812 245.882812 293.316406 187.566406 293.316406 Z M 187.566406 87.910156 C 132.648438 87.910156 87.910156 132.648438 87.910156 187.566406 C 87.910156 242.488281 132.648438 287.226562 187.566406 287.226562 C 242.488281 287.226562 287.226562 242.488281 287.226562 187.566406 C 287.226562 132.648438 242.488281 87.910156 187.566406 87.910156 Z M 187.566406 87.910156 "/>
</g>
<path style=" stroke:none;fill-rule:nonzero;fill:rgb(0%,45.878601%,88.62915%);fill-opacity:1;" d="M 226.039062 232.304688 C 224.382812 232.304688 222.992188 230.910156 222.992188 229.257812 L 222.992188 205.324219 C 222.992188 203.667969 224.382812 202.277344 226.039062 202.277344 C 227.691406 202.277344 229.085938 203.667969 229.085938 205.324219 L 229.085938 229.257812 C 229.085938 230.910156 227.691406 232.304688 226.039062 232.304688 Z M 226.039062 232.304688 "/>
<path style=" stroke:none;fill-rule:nonzero;fill:rgb(0%,45.878601%,88.62915%);fill-opacity:1;" d="M 217.246094 232.304688 C 215.59375 232.304688 214.199219 230.910156 214.199219 229.257812 L 214.199219 205.324219 C 214.199219 203.667969 215.59375 202.277344 217.246094 202.277344 C 218.902344 202.277344 220.292969 203.667969 220.292969 205.324219 L 220.292969 229.257812 C 220.292969 230.910156 218.988281 232.304688 217.246094 232.304688 Z M 217.246094 232.304688 "/>
<path style=" stroke:none;fill-rule:nonzero;fill:rgb(0%,45.878601%,88.62915%);fill-opacity:1;" d="M 212.460938 288.703125 C 212.460938 288.703125 212.371094 288.703125 212.460938 288.703125 C 210.71875 288.617188 209.328125 287.226562 209.414062 285.570312 L 210.894531 231.347656 C 210.980469 229.695312 212.285156 228.386719 213.941406 228.386719 L 229.34375 228.386719 C 231 228.386719 232.304688 229.695312 232.390625 231.347656 L 233.695312 279.304688 C 233.785156 280.957031 232.390625 282.351562 230.738281 282.4375 C 230.738281 282.4375 230.652344 282.4375 230.652344 282.4375 C 228.996094 282.4375 227.691406 281.132812 227.605469 279.480469 L 226.386719 234.480469 L 216.898438 234.480469 L 215.507812 285.746094 C 215.417969 287.398438 214.113281 288.703125 212.460938 288.703125 Z M 212.460938 288.703125 "/>
</g>
</svg>
